<?xml version="1.0" encoding="utf-8"?>
<!-- Generator: Adobe Illustrator 16.0.0, SVG Export Plug-In . SVG Version: 6.00 Build 0)  -->
<!DOCTYPE svg PUBLIC "-//W3C//DTD SVG 1.1//EN" "http://www.w3.org/Graphics/SVG/1.1/DTD/svg11.dtd">
<svg version="1.1" id="Layer_1" xmlns="http://www.w3.org/2000/svg" xmlns:xlink="http://www.w3.org/1999/xlink" x="0px" y="0px"
	 width="100px" height="100px" viewBox="0 0 100 100" enable-background="new 0 0 100 100" xml:space="preserve">
<g>
	<path fill="#D5D4D4" d="M84.448,47.672L67.712,30.936l-0.116,0.116c-4.632-4.325-10.847-6.977-17.685-6.977
		c-7.679,0-14.575,3.341-19.322,8.646L15.013,48.298l0.012,0.012c-0.414,0.472-0.673,1.083-0.673,1.76
		c0,0.844,0.398,1.588,1.009,2.079l16.896,16.896l0.035-0.035c4.625,4.289,10.815,6.915,17.62,6.915
		c7.67,0,14.559-3.333,19.305-8.627l0.062,0.062L84.758,51.88c0.065-0.06,0.126-0.12,0.186-0.185v-0.002l0,0
		c0.432-0.476,0.701-1.1,0.701-1.792C85.645,48.972,85.169,48.153,84.448,47.672z M49.912,67.566
		c-9.702,0-17.567-7.864-17.567-17.566c0-9.701,7.865-17.566,17.567-17.566c9.701,0,17.568,7.865,17.568,17.566
		C67.48,59.702,59.613,67.566,49.912,67.566z"/>
	<circle fill="#D5D4D4" cx="49.99" cy="50.077" r="8.512"/>
</g>
</svg>
