<?xml version="1.0" encoding="utf-8"?>
<!-- Generator: Adobe Illustrator 16.0.0, SVG Export Plug-In . SVG Version: 6.00 Build 0)  -->
<!DOCTYPE svg PUBLIC "-//W3C//DTD SVG 1.1//EN" "http://www.w3.org/Graphics/SVG/1.1/DTD/svg11.dtd">
<svg version="1.1" id="Layer_1" xmlns="http://www.w3.org/2000/svg" xmlns:xlink="http://www.w3.org/1999/xlink" x="0px" y="0px"
	 width="100px" height="100px" viewBox="0 0 100 100" enable-background="new 0 0 100 100" xml:space="preserve">
<path fill="#FFFFFF" d="M50,12.5c-20.711,0-37.5,16.789-37.5,37.5S29.289,87.5,50,87.5S87.5,70.711,87.5,50S70.711,12.5,50,12.5z
	 M66.352,50.902l0.017,0.027L43.001,64.42l-0.016-0.027c-0.156,0.092-0.327,0.157-0.521,0.157c-0.542,0-0.973-0.414-1.035-0.94
	h-0.024v-26.98h0.024c-0.005-0.041-0.024-0.077-0.024-0.12c0-0.585,0.474-1.06,1.059-1.06c0.193,0,0.365,0.066,0.521,0.157
	l0.006-0.01l23.366,13.491l-0.006,0.01c0.316,0.184,0.539,0.511,0.539,0.903S66.668,50.72,66.352,50.902z"/>
</svg>
