<?xml version="1.0" encoding="utf-8"?>
<!-- Generator: Adobe Illustrator 16.0.0, SVG Export Plug-In . SVG Version: 6.00 Build 0)  -->
<!DOCTYPE svg PUBLIC "-//W3C//DTD SVG 1.1//EN" "http://www.w3.org/Graphics/SVG/1.1/DTD/svg11.dtd">
<svg version="1.1" id="Layer_1" xmlns="http://www.w3.org/2000/svg" xmlns:xlink="http://www.w3.org/1999/xlink" x="0px" y="0px"
	 width="100px" height="100px" viewBox="0 0 100 100" enable-background="new 0 0 100 100" xml:space="preserve">
<g>
	<path fill="#FFFFFF" d="M50.001,10.999C28.464,10.999,11,28.461,11,50c0,15.97,9.603,29.688,23.345,35.72
		c-0.11-2.723-0.021-5.993,0.679-8.952c0.75-3.168,5.018-21.252,5.018-21.252s-1.246-2.49-1.246-6.171
		c0-5.779,3.35-10.098,7.52-10.098c3.547,0,5.261,2.664,5.261,5.855c0,3.566-2.273,8.896-3.443,13.839
		c-0.978,4.14,2.075,7.513,6.156,7.513c7.39,0,12.364-9.49,12.364-20.736c0-8.545-5.756-14.943-16.226-14.943
		c-11.831,0-19.201,8.822-19.201,18.676c0,3.4,1.002,5.795,2.572,7.648c0.721,0.853,0.821,1.195,0.56,2.176
		c-0.187,0.717-0.617,2.443-0.794,3.129c-0.259,0.988-1.059,1.34-1.953,0.976c-5.449-2.225-7.987-8.192-7.987-14.9
		c0-11.08,9.343-24.363,27.873-24.363c14.891,0,24.691,10.775,24.691,22.344c0,15.297-8.506,26.727-21.045,26.727
		c-4.209,0-8.169-2.276-9.526-4.86c0,0-2.264,8.983-2.743,10.722c-0.827,3.008-2.446,6.014-3.926,8.354
		c3.508,1.035,7.213,1.601,11.053,1.601C71.538,89.001,89,71.538,89,50C89,28.461,71.538,10.999,50.001,10.999z"/>
</g>
</svg>
