<?xml version="1.0" encoding="utf-8"?>
<!-- Generator: Adobe Illustrator 16.0.0, SVG Export Plug-In . SVG Version: 6.00 Build 0)  -->
<!DOCTYPE svg PUBLIC "-//W3C//DTD SVG 1.1//EN" "http://www.w3.org/Graphics/SVG/1.1/DTD/svg11.dtd">
<svg version="1.1" id="Layer_1" xmlns="http://www.w3.org/2000/svg" xmlns:xlink="http://www.w3.org/1999/xlink" x="0px" y="0px"
	 width="148.836px" height="54.023px" viewBox="0 0 148.836 54.023" enable-background="new 0 0 148.836 54.023"
	 xml:space="preserve">
<g>
	<defs>
		<path id="SVGID_1_" d="M148.836,54.023V0h-9.438l-6.021,33.501l-1.709,9.896l-1.79-9.815L123.776,0h-9.601v54.023h6.021v-41.45
			l1.789,9.814l6.185,31.636h6.509l6.184-31.636l1.79-9.814v41.45H148.836z M99.693,35.61h-7.485l3.823-23.119L99.693,35.61z
			 M109.863,54.023L99.774,0h-7.16l-10.17,54.023h6.428l2.277-12.411h9.602l2.196,12.411H109.863z"/>
	</defs>
	<use xlink:href="#SVGID_1_"  overflow="visible" fill-rule="evenodd" clip-rule="evenodd" fill="#FFFFFF"/>
	<clipPath id="SVGID_2_">
		<use xlink:href="#SVGID_1_"  overflow="visible"/>
	</clipPath>
	<rect x="77.444" y="-5" clip-path="url(#SVGID_2_)" fill="#FFFFFF" width="76.393" height="64.023"/>
</g>
<path fill="#FFFFFF" d="M79.849-0.13H63.52v54.078h16.329V-0.13z M69.47,3.28h1.25v5.889h0.887V3.431h1.172v5.738h0.943V3.28h1.249
	v7.426H69.47V3.28z M69.47,19.175h2.098v-5.101H69.47v-1.568h5.501v1.568h-2.153v5.101h2.153v1.568H69.47V19.175z M69.47,22.069
	h1.241v3.492h4.26v1.568h-4.26v3.508H69.47V22.069z M69.47,41.593l4.252-4.572H69.47V35.5h5.501v2.302l-4.33,4.65h4.33v1.521H69.47
	V41.593z M69.47,45.82h5.501v1.569H69.47V45.82z"/>
<g>
	<defs>
		<path id="SVGID_3_" d="M60.454,54.023V0h-9.438l-6.021,33.501l-1.708,9.896l-1.79-9.815L35.394,0h-9.601v54.023h6.021v-41.45
			l1.79,9.814l6.184,31.636h6.509l6.184-31.636l1.79-9.814v41.45H60.454z M20.911,6.083V0H0v54.023h6.834V29.688h10.903v-5.922
			H6.834V6.083H20.911z"/>
	</defs>
	<use xlink:href="#SVGID_3_"  overflow="visible" fill-rule="evenodd" clip-rule="evenodd" fill="#FFFFFF"/>
	<clipPath id="SVGID_4_">
		<use xlink:href="#SVGID_3_"  overflow="visible"/>
	</clipPath>
	<rect x="-5" y="-5" clip-path="url(#SVGID_4_)" fill="#FFFFFF" width="70.454" height="64.023"/>
</g>
</svg>
